# xmcd CD database file
#
# Track frame offsets:
#	150
#	61204
#	82288
#	121714
#	140108
#	167564
#
# Disc length: 2428 seconds
#
# Revision: 0
# Processed by: cddbd v1.5.2PL0 Copyright (c) Steve Scherf et al.
# Submitted via: CDex 1.51
#
DISCID=4f097a06
DTITLE=Phil Ranelin - The Time Is Now
DYEAR=1900
DGENRE=Jazz
TTITLE0=The Time Is Now For Change
TTITLE1=Time Is Runnig Out
TTITLE2=Of Times Gone By
TTITLE3=Black Destiny
TTITLE4=13th and Senate
TTITLE5=He The One We All Knew
EXTD=
EXTT0=
EXTT1=
EXTT2=
EXTT3=
EXTT4=
EXTT5=
PLAYORDER=
